<svg width="140" height="30" viewBox="0 0 140 30" fill="none" xmlns="http://www.w3.org/2000/svg">
<path d="M137.297 29.6595C136.531 29.6595 135.892 29.4183 135.382 28.9361C134.899 28.4538 134.658 27.858 134.658 27.1488C134.658 26.468 134.914 25.8864 135.424 25.4041C135.963 24.8935 136.587 24.6382 137.297 24.6382C137.977 24.6382 138.587 24.8935 139.126 25.4041C139.665 25.8864 139.935 26.468 139.935 27.1488C139.935 27.858 139.679 28.4538 139.169 28.9361C138.658 29.4183 138.034 29.6595 137.297 29.6595Z" fill="#1A1A1A"/>
<path d="M129.825 10.2128C129.825 10.5815 129.64 10.7659 129.272 10.7659H124.633C124.492 10.7659 124.421 10.8369 124.421 10.9787V23.4042C124.421 24.7659 124.718 25.7305 125.314 26.2979C125.938 26.8369 126.903 27.1064 128.208 27.1064H129.144C129.513 27.1064 129.697 27.2908 129.697 27.6596V29.1489C129.697 29.5177 129.513 29.7163 129.144 29.7447H127.697C125.655 29.7447 124.109 29.3617 123.059 28.5957C122.009 27.8298 121.484 26.4113 121.484 24.3404V10.9787C121.484 10.8369 121.414 10.7659 121.272 10.7659H118.846C118.477 10.7659 118.293 10.5815 118.293 10.2128V8.80849C118.293 8.4397 118.477 8.2553 118.846 8.2553H121.272C121.414 8.2553 121.484 8.18438 121.484 8.04254V3.27658C121.484 2.90779 121.669 2.72339 122.038 2.72339H123.867C124.236 2.72339 124.421 2.90779 124.421 3.27658V8.04254C124.421 8.18438 124.492 8.2553 124.633 8.2553H129.272C129.64 8.2553 129.825 8.4397 129.825 8.80849V10.2128Z" fill="#1A1A1A"/>
<path d="M107.452 29.9999C105.864 29.9999 104.445 29.7446 103.197 29.234C101.977 28.7233 101.027 28.0425 100.346 27.1914C99.6934 26.3404 99.3672 25.39 99.3672 24.3404V23.9574C99.3672 23.5886 99.5516 23.4042 99.9204 23.4042H101.75C101.92 23.4042 102.048 23.4467 102.133 23.5318C102.247 23.5886 102.303 23.6737 102.303 23.7872V24.1701C102.303 25.1063 102.786 25.929 103.75 26.6382C104.715 27.3191 105.935 27.6595 107.41 27.6595C108.885 27.6595 110.076 27.3333 110.984 26.6808C111.892 25.9999 112.346 25.1489 112.346 24.1276C112.346 23.4184 112.119 22.8368 111.665 22.3829C111.211 21.929 110.658 21.5744 110.005 21.3191C109.353 21.0638 108.374 20.7375 107.069 20.3404C105.481 19.8865 104.176 19.4325 103.154 18.9786C102.133 18.5247 101.268 17.9006 100.559 17.1063C99.8495 16.2836 99.4948 15.2482 99.4948 13.9999C99.4948 12.1843 100.204 10.7375 101.623 9.6595C103.069 8.58149 104.956 8.04248 107.282 8.04248C108.842 8.04248 110.218 8.2978 111.41 8.80844C112.63 9.31908 113.566 10.0283 114.218 10.9361C114.871 11.8155 115.197 12.8084 115.197 13.9148C115.197 14.2836 115.013 14.468 114.644 14.468H112.899C112.53 14.468 112.346 14.3687 112.346 14.1701V13.9148C112.346 12.9503 111.878 12.1418 110.942 11.4893C110.034 10.8368 108.8 10.5106 107.24 10.5106C105.793 10.5106 104.63 10.8084 103.75 11.4042C102.871 11.9716 102.431 12.7659 102.431 13.7872C102.431 14.7517 102.842 15.4893 103.665 15.9999C104.516 16.5106 105.835 17.0212 107.623 17.5318C109.268 17.9857 110.601 18.4255 111.623 18.851C112.644 19.2765 113.523 19.9006 114.261 20.7233C114.998 21.546 115.367 22.6099 115.367 23.9148C115.367 25.7588 114.644 27.234 113.197 28.3404C111.779 29.4467 109.864 29.9999 107.452 29.9999Z" fill="#1A1A1A"/>
<path d="M91.7602 29.7872C91.3914 29.7872 91.207 29.6028 91.207 29.234V0.553192C91.207 0.184397 91.3914 0 91.7602 0H93.6751C94.0439 0 94.2283 0.184397 94.2283 0.553192V29.234C94.2283 29.6028 94.0439 29.7872 93.6751 29.7872H91.7602Z" fill="#1A1A1A"/>
<path d="M78.506 7.95752C80.6336 7.95752 82.3074 8.59582 83.5273 9.87241C84.7755 11.149 85.3996 12.8937 85.3996 15.1065V29.2341C85.3996 29.6029 85.2152 29.7873 84.8464 29.7873H82.9741C82.6053 29.7873 82.4209 29.6029 82.4209 29.2341V15.7022C82.4209 14.1419 81.967 12.9079 81.0592 12.0001C80.1797 11.0639 79.0166 10.5958 77.5698 10.5958C76.0663 10.5958 74.8464 11.0497 73.9102 11.9575C73.0024 12.8653 72.5485 14.0852 72.5485 15.6171V29.2341C72.5485 29.6029 72.3641 29.7873 71.9953 29.7873H70.0805C69.7117 29.7873 69.5273 29.6029 69.5273 29.2341V15.7022C69.5273 14.1419 69.0875 12.9079 68.2081 12.0001C67.3287 11.0639 66.1514 10.5958 64.6762 10.5958C63.1727 10.5958 61.967 11.0497 61.0592 11.9575C60.1797 12.8653 59.74 14.0852 59.74 15.6171V29.2341C59.74 29.6029 59.5556 29.7873 59.1868 29.7873H57.2719C56.9031 29.7873 56.7188 29.6029 56.7188 29.2341V8.80858C56.7188 8.43979 56.9031 8.25539 57.2719 8.25539H59.1868C59.5556 8.25539 59.74 8.43979 59.74 8.80858V10.2979C59.74 10.3831 59.7684 10.4398 59.8251 10.4682C59.8819 10.4965 59.9386 10.4682 59.9953 10.383C60.6195 9.56036 61.4138 8.95043 62.3783 8.55326C63.3429 8.1561 64.4209 7.95752 65.6124 7.95752C67.0592 7.95752 68.3074 8.25539 69.357 8.85114C70.4067 9.44688 71.201 10.2838 71.74 11.3618C71.8251 11.532 71.9102 11.5462 71.9953 11.4043C72.6195 10.2412 73.4989 9.37596 74.6336 8.80858C75.7684 8.24121 77.0592 7.95752 78.506 7.95752Z" fill="#1A1A1A"/>
<path d="M43.4245 7.95752C45.6656 7.95752 47.4528 8.62419 48.7862 9.95752C50.1479 11.2909 50.8287 13.0781 50.8287 15.3192V29.2341C50.8287 29.6029 50.6443 29.7873 50.2755 29.7873H48.3606C47.9918 29.7873 47.8074 29.6029 47.8074 29.2341V15.915C47.8074 14.3263 47.3393 13.0497 46.4032 12.0852C45.467 11.0923 44.2471 10.5958 42.7436 10.5958C41.2968 10.5958 40.0911 11.0072 39.1266 11.8299C38.1904 12.6526 37.6514 13.7306 37.5096 15.0639V29.2341C37.5096 29.6029 37.3252 29.7873 36.9564 29.7873H35.0415C34.6727 29.7873 34.4883 29.6029 34.4883 29.2341V8.80858C34.4883 8.43979 34.6727 8.25539 35.0415 8.25539H36.9564C37.3252 8.25539 37.5096 8.43979 37.5096 8.80858V10.383C37.5096 10.4682 37.5379 10.5391 37.5947 10.5958C37.6514 10.6242 37.694 10.5958 37.7223 10.5107C38.9706 8.80858 40.8713 7.95752 43.4245 7.95752Z" fill="#1A1A1A"/>
<path d="M21.7872 7.95752C23.9149 7.95752 25.5887 8.59582 26.8085 9.87241C28.0567 11.149 28.6809 12.8937 28.6809 15.1065V29.2341C28.6809 29.6029 28.4965 29.7873 28.1277 29.7873H26.2553C25.8865 29.7873 25.7021 29.6029 25.7021 29.2341V15.7022C25.7021 14.1419 25.2482 12.9079 24.3404 12.0001C23.461 11.0639 22.2979 10.5958 20.8511 10.5958C19.3475 10.5958 18.1277 11.0497 17.1915 11.9575C16.2837 12.8653 15.8298 14.0852 15.8298 15.6171V29.2341C15.8298 29.6029 15.6454 29.7873 15.2766 29.7873H13.3617C12.9929 29.7873 12.8085 29.6029 12.8085 29.2341V15.7022C12.8085 14.1419 12.3688 12.9079 11.4894 12.0001C10.6099 11.0639 9.43262 10.5958 7.95745 10.5958C6.4539 10.5958 5.24823 11.0497 4.34043 11.9575C3.46099 12.8653 3.02128 14.0852 3.02128 15.6171V29.2341C3.02128 29.6029 2.83688 29.7873 2.46809 29.7873H0.553191C0.184397 29.7873 0 29.6029 0 29.2341V8.80858C0 8.43979 0.184397 8.25539 0.553191 8.25539H2.46809C2.83688 8.25539 3.02128 8.43979 3.02128 8.80858V10.2979C3.02128 10.3831 3.04965 10.4398 3.10638 10.4682C3.16312 10.4965 3.21986 10.4682 3.2766 10.383C3.90071 9.56036 4.69504 8.95043 5.65957 8.55326C6.62411 8.1561 7.70213 7.95752 8.89362 7.95752C10.3404 7.95752 11.5887 8.25539 12.6383 8.85114C13.6879 9.44688 14.4823 10.2838 15.0213 11.3618C15.1064 11.532 15.1915 11.5462 15.2766 11.4043C15.9007 10.2412 16.7801 9.37596 17.9149 8.80858C19.0496 8.24121 20.3404 7.95752 21.7872 7.95752Z" fill="#1A1A1A"/>
</svg>
